<?xml version="1.0" encoding="UTF-8"?>
<svg id="Layer_1" xmlns="http://www.w3.org/2000/svg" version="1.1" viewBox="0 0 1545.1796122 1175.392435">
  <!-- Generator: Adobe Illustrator 30.2.1, SVG Export Plug-In . SVG Version: 2.1.1 Build 1)  -->
  <defs>
    <style>
      .st0 {
        fill: #ffe500;
      }

      .st1 {
        fill: #85ab8f;
      }
    </style>
  </defs>
  <path class="st1" d="M1498.8242238,586.3027578c0-100.0991244-72.9855498-183.1378318-168.6404224-198.8402463,4.3055453-13.6783807,6.6319713-28.2343951,6.6319713-43.3345472,0-79.6232854-64.5476321-144.1707975-144.1709175-144.1707975-60.8747325,0-112.9349382,37.7300847-134.0778893,91.0797203-20.6846793-15.3523457-45.6239848-25.289134-72.7263908-27.7324097-21.8721509-51.7764279-73.1250969-88.1122423-132.8651983-88.1122423-16.495143,0-32.3396266,2.7778525-47.1011187,7.8784081-23.5118897-85.2195816-101.5782999-147.8088703-194.2741009-147.8088703-83.1126842,0-154.4653404,50.3175479-185.2799162,122.1473304-14.3935297-4.8206207-29.7977552-7.4365889-45.8139706-7.4365889-79.6232854,0-144.1706774,64.5473919-144.1706774,144.1706774,0,.7241559.0166928,1.4442287.027381,2.1657426-8.1208743-1.4199701-16.4736465-2.1657426-25.001153-2.1657426-79.6234055,0-144.1707975,64.547512-144.1707975,144.1709175,0,42.0896715,18.0403693,79.9624258,46.8056919,106.3195397-40.6269486,25.4984547-67.6413271,70.6873455-67.6413271,122.1927253,0,79.6233455,64.547512,144.1707975,144.1707975,144.1707975,1.9776782,0,3.9431071-.0510392,5.9015705-.1299398-3.8338232,12.9736797-5.9015705,26.7053212-5.9015705,40.921835,0,79.6233455,64.5473919,144.1707975,144.1707975,144.1707975,17.5549566,0,34.3753093-3.1414316,49.9343337-8.886462-.1788173,2.9402172-.2806555,5.9012703-.2806555,8.886462,0,79.6233455,64.547512,144.1707975,144.1709175,144.1707975,79.6232854,0,144.1706774-64.547452,144.1706774-144.1707975,0-1.7963991-.0441939-3.58223-.1092839-5.3627169,26.1301397,26.4000469,62.3850119,42.759786,102.4645803,42.759786,30.9076473,0,59.540268-9.7302297,83.0110862-26.2884212,30.8029269,71.8563229,102.1696339,122.1968684,185.3015328,122.1968684,111.2997629,0,201.5259881-90.2263452,201.5259881-201.5261081,0-.5910938-.0172933-1.1781044-.0223371-1.7679973,42.7292825-25.0202476,71.431797-71.4009933,71.431797-124.4921905,0-4.8888331-.246189-9.7200219-.7215139-14.4837789,102.7333466-9.2373113,183.250118-95.5547157,183.250118-200.6925482Z"/>
  <g>
    <path class="st0" d="M171.7719377,375.1503314l122.5433313-27.7292202c40.5970838-9.1863463,79.778904,15.5353305,89.220421,57.2600862,1.8712853,8.2697432,2.4094877,17.6317261,1.2733495,26.5819919-.7243199,7.2763727-3.0368932,14.5173133-6.1875322,21.5525979-3.6099788,6.7439302-6.0219704,10.0558365-13.8883615,18.9483238,9.5810286,2.1788208,13.559924,4.0445912,19.1763849,7.910636,15.501871,9.1369321,26.2665389,25.2728639,30.6045414,44.4437339,9.6116983,42.4768355-17.1460315,84.8850236-59.2463795,94.4115299l-122.1681867,27.6443321-61.3275681-271.0240116ZM263.0939645,467.8934645l40.2219393-9.1014582c12.0287987-2.7218879,20.1224994-17.5933424,16.8051795-32.2535248s-16.5638471-24.3074559-30.0968052-21.2452054l-39.0938198,8.8461863,12.1635061,53.7540022ZM287.7610355,576.9042852l40.2219393-9.1014582c14.6601824-3.3173199,23.5059628-18.3589557,20.0185629-33.7707702-3.4873999-15.4118145-18.869297-25.7613066-32.4013599-22.6992587l-40.5979792,9.1865489,12.7588368,56.3849382Z"/>
    <path class="st0" d="M610.2777294,525.6481511c5.0513163,55.6544195-34.5582672,101.0444801-92.1325297,106.2700455-57.5733483,5.2254824-104.6738203-31.9074532-109.6554783-86.7943926l-16.8959007-186.155746,66.4018834-6.0267795,17.4880988,192.6804695c1.5676613,17.2721873,18.628684,30.4291637,37.8198001,28.6873362,19.1911161-1.7418275,32.8366105-17.6857942,31.1296329-36.4929417l-17.3487825-191.1455093,66.4018834-6.0267795,16.7913927,185.0042973Z"/>
    <path class="st0" d="M609.6504455,356.6209585l124.9769305-12.9052129c41.4042182-4.2754311,77.3544704,24.9460602,81.748564,67.4994317.8708984,8.4339728.2878819,17.7932718-1.9083679,26.5439606-1.5875925,7.1379121-4.7478566,14.051084-8.7156506,20.6600452-4.3899898,6.2649605-7.1791101,9.2652228-16.0506089,17.1552766,9.2524967,3.3067621,12.9802673,5.6340853,18.0951613,10.1428318,14.3005519,10.9218015,23.0624173,28.2271788,25.081329,47.7787649,4.4732961,43.3203868-27.1546738,82.231851-70.0910965,86.6654986l-124.594336,12.8657059-28.5419251-276.4063024ZM689.2515314,459.6005409l41.0197974-4.2357355c12.2676798-1.2667699,22.0784653-15.0659234,20.5345806-30.0172438s-13.5443038-26.1106353-27.3460142-24.6854602l-39.8692744,4.1169316,5.6609106,54.8215078ZM700.7316164,570.7762175l41.0197974-4.2357355c14.9513203-1.5438847,25.5291212-15.4222408,23.906081-31.1401199-1.6230402-15.7178791-15.6597543-27.8292541-29.4605516-26.4041732l-41.4033051,4.2753368,5.9379782,57.5046918Z"/>
    <path class="st0" d="M832.7789768,341.658055l124.6121576,16.0495445c41.2824603,5.3170148,69.5888991,41.9929177,64.1241927,84.4220878-1.0830913,8.4093563-3.7933255,17.3866063-7.9346128,25.4020793-3.179569,6.5848751-7.8385894,12.5909341-13.2140468,18.1159873-5.7067747,5.0936494-9.1096041,7.3755738-19.5518197,13.0250492,8.2497145,5.3371885,11.3456656,8.4561297,15.292488,14.0161232,11.4203239,13.9056728,15.9876185,32.7573621,13.4768027,52.2518825-5.5632065,43.1939467-45.2594919,73.8311047-88.070595,68.3172069l-124.2306797-16.0004117,35.496113-275.5995491ZM886.6890505,460.1262165l40.9009824,5.267882c12.2318738,1.5754161,24.9412489-9.6111801,26.8612983-24.5188617,1.9200494-14.9076816-7.206855-28.5179712-20.9682821-30.2903876l-39.7538175-5.1201317-7.0401811,54.6614991ZM872.4118638,570.9774022l40.9009824,5.267882c14.9076816,1.9200494,28.3818333-9.1680467,30.4003242-24.8400496s-8.8726635-30.6752527-22.6331801-32.4475519l-41.2833708-5.317132-7.3847558,57.3368516Z"/>
    <path class="st0" d="M1042.6568687,638.9012573c-35.6395252-14.6706032-52.8336917-55.9240698-38.0165047-91.9196931l78.9266923-191.7378445,61.6554873,25.3797767-75.552471,183.5407961c-5.4281407,13.1866668-.186035,25.7638993,13.3567299,31.3386237l38.1343344,15.6975629-21.1253542,51.3201524-57.3789141-23.6193742Z"/>
    <path class="st0" d="M1298.3717459,441.5871487c-13.2018092-3.3755894-18.6298063-4.369813-27.9375398-4.0493457-14.3186274.3327593-28.2434878,3.7480514-40.8548566,11.0435773-6.6306845,3.9303036-11.0389235,7.5287739-19.523144,16.9483353l66.9535304,27.6970114-21.9511737,53.0637965-66.9535304-27.6970114c-.6383811,5.5752003-.4783595,10.2289793-.3793499,14.0240455.5289311,9.8112033,4.1775445,22.1646422,10.0726124,32.1110054,3.3655731,5.979836,7.8846164,11.1861267,13.1172166,16.6871016,6.2138344,7.1585876,10.7579104,10.2895628,22.6336626,16.8707038l-22.9824734,55.5568148c-12.6739794-5.6601438-22.706889-10.6444795-29.5966047-15.1630211-16.41898-9.7117653-32.7409-27.7245729-43.8195263-47.3224688-21.800986-39.048413-24.5325056-86.8906492-7.8848581-127.133936,16.9422293-40.9553959,53.0303777-72.7393971,96.6961708-85.5398012,9.8362361-2.6042466,20.5930452-4.4104416,31.2643359-5.0013061,21.3430788-1.18053,34.3349763,1.6914873,63.686041,13.4160597l-22.5405129,54.488439Z"/>
    <path class="st0" d="M285.8998027,661.612092l122.5977515-27.4876159c40.6160083-9.1065066,79.7481267,15.692556,89.1073798,57.4358412,1.8549808,8.2734157,2.3747284,17.6364413,1.2209501,26.5844502-.7386612,7.2749309-3.065503,14.5112989-6.2300034,21.5403595-3.6241608,6.7370021-6.0417802,10.0439468-13.9256844,18.9209111,9.5767153,2.1977022,13.5519252,4.0713119,19.1607546,7.9484201,15.4838307,9.1674708,26.2166715,25.3245899,30.516877,44.5039735,9.5279517,42.495699-17.3133188,84.8510614-59.432363,94.2945634l-122.2224403,27.4034674-60.7932218-271.1443705ZM377.0397378,754.5348529l40.2389057-9.0219565c12.0341406-2.6981721,20.1571393-17.5536439,16.8687232-32.2203368-3.2884161-14.6666928-16.5159014-24.3400584-30.0548694-21.3044892l-39.1102852,8.7689087,12.0575257,53.7778737ZM401.4918849,863.5940842l40.2389057-9.0219565c14.6666928-3.2884161,23.5421052-18.3125864,20.085091-33.7312451-3.4570142-15.4186587-18.8184811-25.7984506-32.3565534-22.7630823l-40.6151126,9.1063058,12.6476692,56.4099781Z"/>
    <path class="st0" d="M518.5353581,649.2902017l66.0724083-8.9425414,37.2692076,275.3653785-66.0724083,8.9425414-37.2692076-275.3653785Z"/>
    <path class="st0" d="M620.3348853,650.592256l120.3414502-8.3558189c45.3687753-3.1501471,82.7857941,29.4081854,85.8291177,73.2384773,1.2547304,18.0707691-3.3114638,35.7722994-13.4731222,50.7723858-3.4715377,5.6498552-5.9494163,8.9123258-13.211951,15.5978962,10.7014428,3.8928146,14.7336128,6.3172497,20.1056071,11.3530609,8.7140609,8.6666683,13.3869491,20.3187984,14.3213045,33.775491l6.0332674,86.8918-66.5146795,4.6183972-5.045532-72.6663235c-1.3614902-19.6083367-14.3479786-34.159654-29.3426967-33.1185069l-40.7551567,2.8298039,7.4748434,107.6535413-66.5146795,4.6183972-19.2477726-277.2086015ZM694.671489,758.6260974l39.9592092-3.161013c14.9947181-1.0411471,26.0324098-14.5566197,24.9378828-30.3201216-1.0678211-15.3788811-13.8941697-27.623847-28.504267-26.6094058l-40.3705359,2.8030981,3.9777109,57.2874424Z"/>
    <path class="st0" d="M932.9468648,642.2635583c86.5503582,15.1809326,138.1533603,86.8380241,123.3718384,171.111241-14.4485609,82.374921-84.1016406,129.2422002-170.2722493,114.1278757-22.0173392-3.8618412-34.5248148-8.4033163-60.2588011-22.3081792l46.075583-262.6886194c28.4837063-4.0036471,40.2055387-3.904335,61.083629-.242318ZM927.6146269,710.586234l-26.3669663,150.3247823c43.4749241,6.4516696,79.3038426-19.3493001,86.761172-61.8654321,7.3907213-42.1363824-17.2053749-78.1449328-60.3942057-88.4593502Z"/>
    <path class="st0" d="M1040.8182882,870.72068c5.1154721,3.5503942,8.0340417,4.6171421,11.4138006,5.3948631,13.8974469,3.1979606,28.2789298-2.5887242,30.6988606-13.1050703,1.0370985-4.5069416,1.6393766-12.2779808,1.8358304-21.723954l2.4846464-91.5744578c.0827313-5.517327.2529193-11.4106229,1.4628333-16.6685724,10.1983757-44.3193026,48.8075753-64.3045188,99.5120099-52.6368515,6.3855794,1.4693945,11.1818923,2.9682325,21.7277848,6.9769826l-13.9147827,60.469773c-4.6233945-2.2502931-7.1661337-3.2310291-10.170165-3.9222909-14.2731745-3.2844198-28.5681981,2.1265375-30.8153136,11.8918757-1.2100169,5.2583967-2.1015634,12.5672492-2.3271164,20.4245061l-1.8204422,92.1224506c-.7450998,10.1109692-1.3164895,19.4711364-3.2178711,27.7340117-8.5562688,37.1831626-47.2255587,53.9909819-96.4279777,42.6689455-6.7604124-1.5556478-12.2216183-3.603579-24.1840648-8.3334461l13.7419673-59.7187651Z"/>
  </g>
</svg>